<svg width="69" height="55" viewBox="0 0 69 55" fill="none" xmlns="http://www.w3.org/2000/svg">
<path d="M27.319 8.05801H20.517V14.86H27.319V8.05801Z" stroke="#394553" stroke-width="2.5" stroke-miterlimit="10"/>
<path d="M27.404 20.459H20.601V27.262H27.404V20.459Z" stroke="#394553" stroke-width="2.5" stroke-miterlimit="10"/>
<path d="M40.145 8.05801H33.341V14.86H40.145V8.05801Z" stroke="#394553" stroke-width="2.5" stroke-miterlimit="10"/>
<path d="M45.943 13.588V8.05801H52.746V13.944" stroke="#394553" stroke-width="2.5" stroke-miterlimit="10"/>
<path d="M47.764 53.496L35.698 41.406C34.537 40.232 34.547 38.323 35.721 37.162L36.049 36.838C37.221 35.677 39.131 35.688 40.291 36.86L45.77 42.332V35.184V20.434C45.77 18.784 47.12 17.434 48.77 17.434H49.02C50.67 17.434 52.02 18.784 52.02 20.434V31.7L63.52 33.6C63.52 33.6 67.27 34.35 67.27 39.267L66.174 53.017" stroke="#394553" stroke-width="2.5" stroke-miterlimit="10" stroke-linecap="round" stroke-linejoin="round"/>
<path d="M32.242 43.882H4.73099C3.08099 43.882 1.73099 42.531 1.73099 40.882V4.50301C1.73099 2.85301 3.08099 1.50301 4.73099 1.50301H56.707C58.357 1.50301 59.707 2.85301 59.707 4.50301V28.609" stroke="#394553" stroke-width="2.5" stroke-miterlimit="10" stroke-linejoin="round"/>
<path d="M13.473 1.54001V43.846" stroke="#394553" stroke-width="2.5" stroke-miterlimit="10" stroke-linejoin="round"/>
<path d="M7.79599 20.478V24.909" stroke="#394553" stroke-width="2.5" stroke-miterlimit="10" stroke-linecap="round" stroke-linejoin="round"/>
</svg>
