<svg width="75" height="49" viewBox="0 0 75 49" fill="none" xmlns="http://www.w3.org/2000/svg">
<path d="M8.51501 36.74V6.13099C8.51501 3.80299 10.419 1.89999 12.745 1.89999H62.253C64.581 1.89999 66.485 3.80299 66.485 6.13099V41.248" stroke="#394553" stroke-width="2.5" stroke-miterlimit="10" stroke-linejoin="round"/>
<path d="M1.763 41.402C1.763 41.402 2.799 47.099 6.895 47.099H68.106C72.202 47.099 73.238 41.402 73.238 41.402H1.763Z" stroke="#394553" stroke-width="2.5" stroke-miterlimit="10" stroke-linejoin="round"/>
<path d="M26.792 25.449V33.176H48.208V25.451" stroke="#394553" stroke-width="2.5" stroke-miterlimit="10" stroke-linejoin="round"/>
<path d="M39.398 21.637H49.861V16.373H25.138V21.637H35.597" stroke="#394553" stroke-width="2.5" stroke-miterlimit="10" stroke-linejoin="round"/>
<path d="M35.013 16.504V33.1" stroke="#394553" stroke-width="2.5" stroke-miterlimit="10" stroke-linejoin="round"/>
<path d="M39.987 16.504V33.1" stroke="#394553" stroke-width="2.5" stroke-miterlimit="10" stroke-linejoin="round"/>
<path d="M37.514 16.288C38.194 11.682 40.157 8.894 42.762 8.894C44.826 8.894 46.5 10.568 46.5 12.633C46.5 14.697 44.826 16.373 42.762 16.373" stroke="#394553" stroke-width="2.5" stroke-miterlimit="10" stroke-linecap="round" stroke-linejoin="round"/>
<path d="M37.486 16.288C36.806 11.682 34.843 8.894 32.237 8.894C30.173 8.894 28.499 10.568 28.499 12.633C28.499 14.697 30.173 16.373 32.237 16.373" stroke="#394553" stroke-width="2.5" stroke-miterlimit="10" stroke-linecap="round" stroke-linejoin="round"/>
</svg>
