<svg width="85" height="85" viewBox="0 0 85 85" fill="none" xmlns="http://www.w3.org/2000/svg">
<g filter="url(#filter0_d)">
<path d="M25.696 34.942H68.752" stroke="#394553" stroke-width="2.5" stroke-miterlimit="10" stroke-linecap="round" stroke-linejoin="round"/>
<path d="M47.381 24.028V46.702" stroke="#394553" stroke-width="2.5" stroke-miterlimit="10"/>
<path d="M60.27 24.028L57.289 45.084" stroke="#394553" stroke-width="2.5" stroke-miterlimit="10"/>
<path d="M34.5161 23.964L38.0521 48.104" stroke="#394553" stroke-width="2.5" stroke-miterlimit="10"/>
<path d="M67.873 56.192H29.336C26.798 56.192 26.406 50.566 30.355 49.696L65.779 43.877L73.273 23.706H22.177" stroke="#394553" stroke-width="2.5" stroke-miterlimit="10" stroke-linejoin="round"/>
<path d="M28.007 44.399L19.033 15.684H11.728" stroke="#394553" stroke-width="2.5" stroke-miterlimit="10" stroke-linecap="round" stroke-linejoin="round"/>
<path d="M32.996 69.316C35.135 69.316 36.869 67.582 36.869 65.443C36.869 63.304 35.135 61.57 32.996 61.57C30.857 61.57 29.123 63.304 29.123 65.443C29.123 67.582 30.857 69.316 32.996 69.316Z" stroke="#394553" stroke-width="2.5" stroke-miterlimit="10" stroke-linecap="round" stroke-linejoin="round"/>
<path d="M61.5161 69.316C63.6551 69.316 65.3891 67.582 65.3891 65.443C65.3891 63.304 63.6551 61.57 61.5161 61.57C59.3771 61.57 57.6431 63.304 57.6431 65.443C57.6431 67.582 59.3771 69.316 61.5161 69.316Z" stroke="#394553" stroke-width="2.5" stroke-miterlimit="10" stroke-linecap="round" stroke-linejoin="round"/>
</g>
<defs>
<filter id="filter0_d" x="6.47803" y="14.434" width="72.045" height="64.132" filterUnits="userSpaceOnUse" color-interpolation-filters="sRGB">
<feFlood flood-opacity="0" result="BackgroundImageFix"/>
<feColorMatrix in="SourceAlpha" type="matrix" values="0 0 0 0 0 0 0 0 0 0 0 0 0 0 0 0 0 0 127 0"/>
<feOffset dy="4"/>
<feGaussianBlur stdDeviation="2"/>
<feColorMatrix type="matrix" values="0 0 0 0 0 0 0 0 0 0 0 0 0 0 0 0 0 0 0.25 0"/>
<feBlend mode="normal" in2="BackgroundImageFix" result="effect1_dropShadow"/>
<feBlend mode="normal" in="SourceGraphic" in2="effect1_dropShadow" result="shape"/>
</filter>
</defs>
</svg>
