<svg width="85" height="85" viewBox="0 0 85 85" fill="none" xmlns="http://www.w3.org/2000/svg">
<path d="M71.904 42.502C71.904 58.736 58.741 71.898 42.495 71.898C26.257 71.898 13.095 58.736 13.095 42.502C13.095 26.264 26.257 13.103 42.495 13.103C58.741 13.103 71.904 26.264 71.904 42.502Z" stroke="#C5C5C5" stroke-width="2.5" stroke-miterlimit="10"/>
<path d="M36.2289 33.058C36.2289 33.058 44.2819 34.193 46.7959 28.042C46.7959 28.042 49.4899 33.019 53.4279 33.019" stroke="#C5C5C5" stroke-width="2.5" stroke-miterlimit="10" stroke-linecap="round" stroke-linejoin="round"/>
<path d="M36.414 48.064C36.414 48.064 36.414 52.555 36.414 52.736C36.414 52.917 36.751 54.732 24.904 57.747" stroke="#C5C5C5" stroke-width="2.5" stroke-miterlimit="10" stroke-linecap="round" stroke-linejoin="round"/>
<path d="M48.586 48.064C48.581 49.543 48.586 52.555 48.586 52.736C48.586 52.917 48.25 54.732 60.096 57.747" stroke="#C5C5C5" stroke-width="2.5" stroke-miterlimit="10" stroke-linecap="round" stroke-linejoin="round"/>
<path d="M46.17 48.797C47.775 48.412 48.596 47.693 48.596 47.693C51.315 45.763 52.999 39.71 53.507 35.466C54.255 29.218 53.391 21.744 42.499 21.497C31.609 21.744 30.745 29.218 31.495 35.466C32.002 39.707 33.687 45.763 36.404 47.693C36.404 47.693 37.225 48.412 38.83 48.797" stroke="#C5C5C5" stroke-width="2.5" stroke-miterlimit="10" stroke-linecap="round" stroke-linejoin="round"/>
</svg>
